# xmcd
#
# Track frame offsets: 
#        180
#        9783
#        31013
#        42648
#        57050
#        67918
#        81127
#        93273
#        105728
#        118630
#        128547
#        141230
#        152769
#        162181
#        173246
#        190264
#        201703
#        218245
#        228061
#        236573
#        247419
#
# Disc length: 3439 seconds
#
# Revision: 0
# Processed by: cddbd v1.5.1PL2 Copyright (c) Steve Scherf et al.
# Submitted via: ExactAudioCopy v0.95b4
#
DISCID=190d6d15
DTITLE=Sleepy LaBeef - The Bull's Night Out and Western Gold
DYEAR=1999
DGENRE=Rockabilly
TTITLE0=Too Much Monkey Business
TTITLE1=Buying A Book
TTITLE2=Back Of His Hand
TTITLE3=Birds Of All Nations
TTITLE4=Blackland Farmer
TTITLE5=Me And Bobby McGee
TTITLE6=Boom, Boom, Boom
TTITLE7=It Ain't Sanitary
TTITLE8=Honey Hush
TTITLE9=A Hundred Pounds Of Clay
TTITLE10=Asphalt Cowboy
TTITLE11=Mule Train
TTITLE12=Cool Water
TTITLE13=Tumbling Tumbleweeds
TTITLE14=Strawberry Roan
TTITLE15=High Noon
TTITLE16=Streets Of Laredo
TTITLE17=Wagon Wheels
TTITLE18=Home On the Range
TTITLE19=Bury Me Not On The Lone Prairie
TTITLE20=Ghost Riders In The Sky
EXTD=
EXTT0=
EXTT1=
EXTT2=
EXTT3=
EXTT4=
EXTT5=
EXTT6=
EXTT7=
EXTT8=
EXTT9=
EXTT10=
EXTT11=
EXTT12=
EXTT13=
EXTT14=
EXTT15=
EXTT16=
EXTT17=
EXTT18=
EXTT19=
EXTT20=
PLAYORDER=
